<svg width="250" height="17" viewBox="0 0 250 17" fill="none" xmlns="http://www.w3.org/2000/svg">
<path d="M0.632195 8.51902C0.632195 7.0439 0.92722 5.73034 1.51727 4.57834C2.12137 3.42634 2.97834 2.53424 4.0882 1.90205C5.19805 1.2558 6.50459 0.932683 8.00781 0.932683C9.30029 0.932683 10.4523 1.17854 11.4638 1.67024C12.4894 2.1479 13.3182 2.82927 13.9504 3.71434C14.5967 4.59941 15.0252 5.632 15.2359 6.8121H10.3048C10.08 6.32039 9.75688 5.94107 9.33541 5.67415C8.928 5.39317 8.45737 5.25268 7.92351 5.25268C7.13678 5.25268 6.51161 5.54771 6.048 6.13776C5.59844 6.7278 5.37366 7.52156 5.37366 8.51902C5.37366 9.51649 5.59844 10.3102 6.048 10.9003C6.51161 11.4903 7.13678 11.7854 7.92351 11.7854C8.45737 11.7854 8.928 11.6519 9.33541 11.385C9.75688 11.104 10.08 10.7177 10.3048 10.226H15.2359C15.0252 11.406 14.5967 12.4386 13.9504 13.3237C13.3182 14.2088 12.4894 14.8972 11.4638 15.3889C10.4523 15.8665 9.30029 16.1054 8.00781 16.1054C6.50459 16.1054 5.19805 15.7893 4.0882 15.1571C2.97834 14.5108 2.12137 13.6117 1.51727 12.4597C0.92722 11.3077 0.632195 9.99415 0.632195 8.51902ZM24.1905 16.1475C22.7856 16.1475 21.4932 15.8174 20.3131 15.1571C19.147 14.4968 18.2198 13.5836 17.5314 12.4176C16.843 11.2515 16.4988 9.93795 16.4988 8.47688C16.4988 7.0158 16.843 5.70224 17.5314 4.5362C18.2198 3.37015 19.147 2.464 20.3131 1.81776C21.4932 1.15746 22.7856 0.827317 24.1905 0.827317C25.5954 0.827317 26.8809 1.15746 28.0469 1.81776C29.213 2.464 30.1332 3.37015 30.8075 4.5362C31.4959 5.70224 31.8401 7.0158 31.8401 8.47688C31.8401 9.93795 31.4959 11.2515 30.8075 12.4176C30.1332 13.5836 29.2059 14.4968 28.0258 15.1571C26.8598 15.8174 25.5813 16.1475 24.1905 16.1475ZM24.1905 11.7854C25.1177 11.7854 25.8342 11.4903 26.34 10.9003C26.8457 10.2962 27.0986 9.48839 27.0986 8.47688C27.0986 7.45132 26.8457 6.64351 26.34 6.05346C25.8342 5.44937 25.1177 5.14732 24.1905 5.14732C23.2492 5.14732 22.5257 5.44937 22.02 6.05346C21.5142 6.64351 21.2613 7.45132 21.2613 8.47688C21.2613 9.48839 21.5142 10.2962 22.02 10.9003C22.5257 11.4903 23.2492 11.7854 24.1905 11.7854ZM51.461 1.0802V16H46.8038V8.56117L44.5069 16H40.503L38.206 8.56117V16H33.5277V1.0802H39.2596L42.5471 10.0363L45.7502 1.0802H51.461ZM58.1448 1.0802V9.48839C58.1448 10.1768 58.2923 10.7247 58.5874 11.1321C58.8964 11.5255 59.3881 11.7221 60.0625 11.7221C60.7368 11.7221 61.2356 11.5255 61.5587 11.1321C61.8818 10.7247 62.0434 10.1768 62.0434 9.48839V1.0802H66.7005V9.48839C66.7005 10.9073 66.4055 12.1225 65.8155 13.134C65.2254 14.1315 64.4176 14.8831 63.392 15.3889C62.3665 15.8946 61.2215 16.1475 59.9571 16.1475C58.6927 16.1475 57.5688 15.8946 56.5854 15.3889C55.616 14.8831 54.8574 14.1315 54.3095 13.134C53.7616 12.1366 53.4877 10.9214 53.4877 9.48839V1.0802H58.1448ZM83.027 16H78.3487L73.3965 8.49795V16H68.7183V1.0802H73.3965L78.3487 8.70868V1.0802H83.027V16ZM89.8188 1.0802V16H85.1405V1.0802H89.8188ZM98.1483 1.0802C99.7077 1.0802 101.07 1.39629 102.236 2.02849C103.417 2.66068 104.323 3.53873 104.955 4.66263C105.587 5.78654 105.903 7.06498 105.903 8.49795C105.903 9.91688 105.587 11.1953 104.955 12.3333C104.323 13.4712 103.417 14.3703 102.236 15.0306C101.07 15.6769 99.7077 16 98.1483 16H91.9317V1.0802H98.1483ZM97.7268 11.8275C98.7805 11.8275 99.6164 11.5395 100.235 10.9635C100.853 10.3875 101.162 9.56566 101.162 8.49795C101.162 7.43024 100.853 6.60839 100.235 6.03239C99.6164 5.45639 98.7805 5.16839 97.7268 5.16839H96.6099V11.8275H97.7268ZM117.16 13.7452H112.186L111.449 16H106.539L111.997 1.0802H117.392L122.828 16H117.897L117.16 13.7452ZM116.022 10.226L114.673 6.07454L113.324 10.226H116.022ZM130.108 1.0802C131.667 1.0802 133.03 1.39629 134.196 2.02849C135.376 2.66068 136.282 3.53873 136.915 4.66263C137.547 5.78654 137.863 7.06498 137.863 8.49795C137.863 9.91688 137.547 11.1953 136.915 12.3333C136.282 13.4712 135.376 14.3703 134.196 15.0306C133.03 15.6769 131.667 16 130.108 16H123.891V1.0802H130.108ZM129.686 11.8275C130.74 11.8275 131.576 11.5395 132.194 10.9635C132.812 10.3875 133.121 9.56566 133.121 8.49795C133.121 7.43024 132.812 6.60839 132.194 6.03239C131.576 5.45639 130.74 5.16839 129.686 5.16839H128.57V11.8275H129.686ZM144.23 4.81015V6.64351H148.866V10.1627H144.23V12.27H149.499V16H139.552V1.0802H149.499V4.81015H144.23ZM161.059 1.0802C162.619 1.0802 163.981 1.39629 165.147 2.02849C166.327 2.66068 167.234 3.53873 167.866 4.66263C168.498 5.78654 168.814 7.06498 168.814 8.49795C168.814 9.91688 168.498 11.1953 167.866 12.3333C167.234 13.4712 166.327 14.3703 165.147 15.0306C163.981 15.6769 162.619 16 161.059 16H154.843V1.0802H161.059ZM160.638 11.8275C161.691 11.8275 162.527 11.5395 163.145 10.9635C163.763 10.3875 164.073 9.56566 164.073 8.49795C164.073 7.43024 163.763 6.60839 163.145 6.03239C162.527 5.45639 161.691 5.16839 160.638 5.16839H159.521V11.8275H160.638ZM175.182 4.81015V6.64351H179.818V10.1627H175.182V12.27H180.45V16H170.503V1.0802H180.45V4.81015H175.182ZM196.204 1.0802V10.7106C196.204 12.4948 195.733 13.8505 194.792 14.7778C193.865 15.6909 192.558 16.1475 190.872 16.1475C189.06 16.1475 187.62 15.6488 186.552 14.6513C185.485 13.6539 184.951 12.1998 184.951 10.2892H189.566C189.566 10.8933 189.664 11.3218 189.861 11.5746C190.058 11.8135 190.324 11.9329 190.662 11.9329C190.943 11.9329 191.16 11.8416 191.315 11.6589C191.469 11.4763 191.547 11.1602 191.547 10.7106V1.0802H196.204ZM202.902 4.81015V6.64351H207.538V10.1627H202.902V12.27H208.17V16H198.224V1.0802H208.17V4.81015H202.902ZM215.77 16.1475C213.986 16.1475 212.511 15.7331 211.345 14.9042C210.193 14.0613 209.568 12.832 209.47 11.2164H214.443C214.513 12.0734 214.892 12.5019 215.581 12.5019C215.834 12.5019 216.044 12.4457 216.213 12.3333C216.396 12.2068 216.487 12.0172 216.487 11.7643C216.487 11.4131 216.297 11.1321 215.918 10.9214C215.539 10.6966 214.949 10.4437 214.148 10.1627C213.193 9.82556 212.399 9.49541 211.767 9.17229C211.148 8.84917 210.615 8.37854 210.165 7.76039C209.715 7.14224 209.498 6.34849 209.512 5.37912C209.512 4.40976 209.758 3.5879 210.249 2.91356C210.755 2.22517 211.436 1.70537 212.293 1.35415C213.164 1.00293 214.141 0.827317 215.223 0.827317C217.049 0.827317 218.496 1.24878 219.564 2.09171C220.645 2.93463 221.214 4.12176 221.271 5.65307H216.234C216.22 5.23161 216.115 4.92956 215.918 4.74693C215.721 4.56429 215.482 4.47298 215.202 4.47298C215.005 4.47298 214.843 4.54322 214.717 4.68371C214.59 4.81015 214.527 4.99278 214.527 5.23161C214.527 5.56878 214.71 5.84976 215.075 6.07454C215.454 6.28527 216.051 6.54517 216.866 6.85424C217.808 7.20546 218.58 7.54263 219.184 7.86576C219.802 8.18888 220.336 8.63844 220.786 9.21444C221.235 9.79044 221.46 10.514 221.46 11.385C221.46 12.2981 221.235 13.12 220.786 13.8505C220.336 14.567 219.683 15.129 218.826 15.5364C217.969 15.9438 216.951 16.1475 215.77 16.1475ZM227.677 1.0802V9.48839C227.677 10.1768 227.824 10.7247 228.119 11.1321C228.428 11.5255 228.92 11.7221 229.594 11.7221C230.269 11.7221 230.768 11.5255 231.091 11.1321C231.414 10.7247 231.575 10.1768 231.575 9.48839V1.0802H236.233V9.48839C236.233 10.9073 235.938 12.1225 235.347 13.134C234.757 14.1315 233.95 14.8831 232.924 15.3889C231.898 15.8946 230.754 16.1475 229.489 16.1475C228.225 16.1475 227.101 15.8946 226.117 15.3889C225.148 14.8831 224.389 14.1315 223.842 13.134C223.294 12.1366 223.02 10.9214 223.02 9.48839V1.0802H227.677ZM244.088 16.1475C242.303 16.1475 240.828 15.7331 239.662 14.9042C238.51 14.0613 237.885 12.832 237.787 11.2164H242.76C242.83 12.0734 243.21 12.5019 243.898 12.5019C244.151 12.5019 244.362 12.4457 244.53 12.3333C244.713 12.2068 244.804 12.0172 244.804 11.7643C244.804 11.4131 244.614 11.1321 244.235 10.9214C243.856 10.6966 243.266 10.4437 242.465 10.1627C241.51 9.82556 240.716 9.49541 240.084 9.17229C239.466 8.84917 238.932 8.37854 238.482 7.76039C238.033 7.14224 237.815 6.34849 237.829 5.37912C237.829 4.40976 238.075 3.5879 238.566 2.91356C239.072 2.22517 239.754 1.70537 240.61 1.35415C241.482 1.00293 242.458 0.827317 243.54 0.827317C245.366 0.827317 246.813 1.24878 247.881 2.09171C248.962 2.93463 249.531 4.12176 249.588 5.65307H244.551C244.537 5.23161 244.432 4.92956 244.235 4.74693C244.038 4.56429 243.8 4.47298 243.519 4.47298C243.322 4.47298 243.16 4.54322 243.034 4.68371C242.907 4.81015 242.844 4.99278 242.844 5.23161C242.844 5.56878 243.027 5.84976 243.392 6.07454C243.771 6.28527 244.369 6.54517 245.183 6.85424C246.125 7.20546 246.897 7.54263 247.501 7.86576C248.12 8.18888 248.653 8.63844 249.103 9.21444C249.553 9.79044 249.777 10.514 249.777 11.385C249.777 12.2981 249.553 13.12 249.103 13.8505C248.653 14.567 248 15.129 247.143 15.5364C246.286 15.9438 245.268 16.1475 244.088 16.1475Z" fill="white"/>
</svg>
